<?xml version="1.0" encoding="UTF-8" standalone="no"?>
<!DOCTYPE svg PUBLIC "-//W3C//DTD SVG 1.1//EN"
 "http://www.w3.org/Graphics/SVG/1.1/DTD/svg11.dtd">
<!-- Generated by graphviz version 10.0.1 (20240210.2158)
 -->
<!-- Pages: 1 -->
<svg width="228pt" height="332pt"
 viewBox="0.00 0.00 228.00 332.00" xmlns="http://www.w3.org/2000/svg" xmlns:xlink="http://www.w3.org/1999/xlink">
<g id="graph0" class="graph" transform="scale(1 1) rotate(0) translate(4 328)">
<polygon fill="white" stroke="none" points="-4,4 -4,-328 224,-328 224,4 -4,4"/>
<!-- &#45;2324128662919167882 -->
<g id="node1" class="node">
<title>&#45;2324128662919167882</title>
<polygon fill="none" stroke="black" points="206.5,-324 13.5,-324 13.5,-288 206.5,-288 206.5,-324"/>
<text text-anchor="middle" x="110" y="-297.5" font-family="Helvetica,sans-Serif" font-size="20.00">Sub(CumSum, 100)</text>
</g>
<!-- &#45;3820750336638409841 -->
<g id="node2" class="node">
<title>&#45;3820750336638409841</title>
<polygon fill="none" stroke="black" points="211,-252 9,-252 9,-216 211,-216 211,-252"/>
<text text-anchor="middle" x="110" y="-225.5" font-family="Helvetica,sans-Serif" font-size="20.00">CumSum(Projection)</text>
</g>
<!-- &#45;3820750336638409841&#45;&gt;&#45;2324128662919167882 -->
<g id="edge1" class="edge">
<title>&#45;3820750336638409841&#45;&gt;&#45;2324128662919167882</title>
<path fill="none" stroke="black" d="M110,-252.3C110,-259.59 110,-268.27 110,-276.46"/>
<polygon fill="black" stroke="black" points="106.5,-276.38 110,-286.38 113.5,-276.38 106.5,-276.38"/>
</g>
<!-- 7735688822032360981 -->
<g id="node3" class="node">
<title>7735688822032360981</title>
<polygon fill="none" stroke="black" points="218.12,-180 1.88,-180 1.88,-144 218.12,-144 218.12,-180"/>
<text text-anchor="middle" x="110" y="-153.5" font-family="Helvetica,sans-Serif" font-size="20.00">Projection(LocSlice, a)</text>
</g>
<!-- 7735688822032360981&#45;&gt;&#45;3820750336638409841 -->
<g id="edge2" class="edge">
<title>7735688822032360981&#45;&gt;&#45;3820750336638409841</title>
<path fill="none" stroke="black" d="M110,-180.3C110,-187.59 110,-196.27 110,-204.46"/>
<polygon fill="black" stroke="black" points="106.5,-204.38 110,-214.38 113.5,-204.38 106.5,-204.38"/>
</g>
<!-- 2323593712354967373 -->
<g id="node4" class="node">
<title>2323593712354967373</title>
<polygon fill="none" stroke="black" points="220,-108 0,-108 0,-72 220,-72 220,-108"/>
<text text-anchor="middle" x="110" y="-81.5" font-family="Helvetica,sans-Serif" font-size="20.00">LocSlice(FromPandas)</text>
</g>
<!-- 2323593712354967373&#45;&gt;7735688822032360981 -->
<g id="edge3" class="edge">
<title>2323593712354967373&#45;&gt;7735688822032360981</title>
<path fill="none" stroke="black" d="M110,-108.3C110,-115.59 110,-124.27 110,-132.46"/>
<polygon fill="black" stroke="black" points="106.5,-132.38 110,-142.38 113.5,-132.38 106.5,-132.38"/>
</g>
<!-- &#45;6463623712136338999 -->
<g id="node5" class="node">
<title>&#45;6463623712136338999</title>
<polygon fill="none" stroke="black" points="175.38,-36 44.62,-36 44.62,0 175.38,0 175.38,-36"/>
<text text-anchor="middle" x="110" y="-9.5" font-family="Helvetica,sans-Serif" font-size="20.00">FromPandas</text>
</g>
<!-- &#45;6463623712136338999&#45;&gt;2323593712354967373 -->
<g id="edge4" class="edge">
<title>&#45;6463623712136338999&#45;&gt;2323593712354967373</title>
<path fill="none" stroke="black" d="M110,-36.3C110,-43.59 110,-52.27 110,-60.46"/>
<polygon fill="black" stroke="black" points="106.5,-60.38 110,-70.38 113.5,-60.38 106.5,-60.38"/>
</g>
</g>
</svg>
